<svg xmlns="http://www.w3.org/2000/svg" width="300" height="120"><g fill="#CC3533"><polygon points="257.5,45.7 261.5,45.7 261.5,54 257.5,54 257.5,73.2 260.9,73.2 260.9,81.4 249.3,81.4 249.3,81.4 249.3,54 245.1,54 245.1,45.7 249.3,45.7 249.3,34.2 257.5,34.2"/><path d="M233.2 54h-2.6v-8.3h10.9v27.5h3.4v8.3h-15.100000000000001v-8.3h3.4v-19.200000000000003zM233.2 42.4v-8.2h8.3v8.2h-8.3zM3.4 54h-3.4v-8.3h11.7v3.8c2.2-2 6.9-4.2 12.7-4.2v8.5c-10 .2-12.7 5.1-12.7 9.7v9.7h3.3v8.3h-15v-8.3h3.4v-19.2zM102.2 54v-8.3h-11.1v2.5c-2.9-1.9-6.2-2.9-9.8-2.9-5.1 0-9.4 1.8-12.9 5.4s-5.4 7.9-5.4 13 1.8 9.4 5.4 12.9c3.6 3.6 7.9 5.4 12.9 5.4 3.7 0 6.9-.9 9.8-2.9v2.3h11.1v-8.3h-2.6v-19.1h2.6zm-20.3 20.2c-5.9 0-10.6-4.8-10.6-10.6 0-5.9 4.8-10.6 10.6-10.6 5.9 0 10.4 4.8 10.4 10.6s-4.6 10.6-10.4 10.6zM140 73.2v-43h-11.9v8.3h3.4v10c-3-2-6.3-3.1-10.2-3.1-5.1 0-9.4 1.8-12.9 5.4s-5.4 7.9-5.4 12.9 1.8 9.4 5.4 12.9c3.6 3.6 7.9 5.4 12.9 5.4 3.8 0 7.2-1 10.2-3.1v2.6h11.9v-8.3h-3.4zm-18.1 1c-5.9 0-10.6-4.8-10.6-10.6 0-5.9 4.8-10.6 10.6-10.6s10.4 4.8 10.4 10.6-4.6 10.6-10.4 10.6zM228.2 54v-8.3c-5.8 0-10.4 1.8-12.7 3.8v-3.8h-27.4v8.3h3.4l-9.9 17.2v-25.4h-10.6l-15 25.5v-17.3h3.4v-8.3h-15v8.3h3.4v27.4h11.8l13.8-23.3v23.3h11.6l16.1-27.4h6.1v19.2h-3.4v8.3h15v-8.3h-3.4v-9.7c.1-4.6 2.7-9.3 12.8-9.5zM60.2 66.2c.1-.8.2-1.6.2-2.5 0-10.1-8-18.3-17.9-18.3s-17.9 8.2-17.9 18.3 8 18.3 17.9 18.3c7.7 0 14.3-5 16.8-11.9h-8.6c-1.9 2.7-4.9 4.4-8.3 4.4-4.9 0-8.9-3.5-10-8.3h27.8zm-17.8-13.3c4.3 0 8 2.8 9.5 6.7h-19c1.5-3.9 5.2-6.7 9.5-6.7zM298.3 66.2c.1-.8.2-1.6.2-2.5 0-10.1-8-18.3-17.9-18.3s-17.9 8.2-17.9 18.3 8 18.3 17.9 18.3c7.7 0 14.3-5 16.8-11.9h-8.6c-1.9 2.7-4.9 4.4-8.3 4.4-4.9 0-8.9-3.5-10-8.3h27.8zm-17.8-13.3c4.3 0 8 2.8 9.5 6.7h-19c1.5-3.9 5.2-6.7 9.5-6.7z"/></g></svg>