<?xml version="1.0" encoding="utf-8"?>
<!-- Generator: Adobe Illustrator 16.0.0, SVG Export Plug-In . SVG Version: 6.00 Build 0)  -->
<!DOCTYPE svg PUBLIC "-//W3C//DTD SVG 1.1//EN" "http://www.w3.org/Graphics/SVG/1.1/DTD/svg11.dtd">
<svg version="1.1" id="Layer_1" xmlns="http://www.w3.org/2000/svg" xmlns:xlink="http://www.w3.org/1999/xlink" x="0px" y="0px"
	 width="196.296px" height="111.495px" viewBox="0 0 196.296 111.495" enable-background="new 0 0 196.296 111.495"
	 xml:space="preserve">
<ellipse transform="matrix(1 -0.0062 0.0062 1 -0.3432 0.6657)" fill-rule="evenodd" clip-rule="evenodd" fill="#0067B1" cx="107.372" cy="55.78" rx="3.392" ry="3.408"/>
<ellipse transform="matrix(1 -0.0062 0.0062 1 -0.3414 0.736)" fill-rule="evenodd" clip-rule="evenodd" fill="#0067B1" cx="119.112" cy="55.707" rx="4.353" ry="4.375"/>
<ellipse transform="matrix(1 -0.0063 0.0063 1 -0.3476 0.835)" fill-rule="evenodd" clip-rule="evenodd" fill="#0067B1" cx="132.446" cy="55.625" rx="5.584" ry="5.613"/>
<path fill-rule="evenodd" clip-rule="evenodd" fill="#0067B1" d="M154.896,55.486c0.024,3.979-3.163,7.222-7.122,7.246
	c-3.959,0.023-7.187-3.179-7.212-7.158c-0.023-3.975,3.163-7.222,7.123-7.246C151.645,48.304,154.872,51.51,154.896,55.486z"/>
<path fill-rule="evenodd" clip-rule="evenodd" fill="#FDB913" d="M101.126,42.603c1.785,0.569,2.772,2.484,2.205,4.28
	c-0.57,1.793-2.476,2.785-4.26,2.218c-1.786-0.572-2.771-2.489-2.204-4.282C97.435,43.025,99.343,42.033,101.126,42.603z"/>
<path fill-rule="evenodd" clip-rule="evenodd" fill="#FDB913" d="M104.977,30.441c2.291,0.732,3.556,3.19,2.829,5.492
	c-0.73,2.301-3.177,3.575-5.467,2.843c-2.292-0.732-3.558-3.19-2.828-5.492C100.238,30.98,102.687,29.707,104.977,30.441z"/>
<path fill-rule="evenodd" clip-rule="evenodd" fill="#FDB913" d="M109.392,16.493c2.941,0.938,4.566,4.093,3.63,7.049
	c-0.933,2.954-4.075,4.584-7.017,3.645c-2.938-0.938-4.562-4.093-3.628-7.049C103.312,17.184,106.452,15.553,109.392,16.493z"/>
<path fill-rule="evenodd" clip-rule="evenodd" fill="#FDB913" d="M114.506,0.342c3.772,1.206,5.856,5.254,4.657,9.046
	c-1.2,3.789-5.23,5.886-9.004,4.681c-3.771-1.205-5.857-5.257-4.655-9.051C106.703,1.227,110.733-0.866,114.506,0.342z"/>
<path fill-rule="evenodd" clip-rule="evenodd" fill="#F78E1E" d="M85.699,47.745c1.092-1.528,3.209-1.878,4.731-0.782
	c1.523,1.1,1.873,3.227,0.782,4.756C90.119,53.246,88,53.598,86.478,52.5C84.955,51.404,84.606,49.277,85.699,47.745z"/>
<path fill-rule="evenodd" clip-rule="evenodd" fill="#F78E1E" d="M75.377,40.307c1.4-1.962,4.119-2.413,6.073-1.003
	c1.953,1.409,2.403,4.14,1.002,6.103c-1.403,1.964-4.121,2.411-6.075,1.003C74.423,45.006,73.978,42.271,75.377,40.307z"/>
<path fill-rule="evenodd" clip-rule="evenodd" fill="#F78E1E" d="M63.539,31.778c1.799-2.523,5.287-3.102,7.793-1.294
	c2.507,1.81,3.083,5.314,1.284,7.832c-1.796,2.52-5.284,3.101-7.792,1.289C62.315,37.802,61.742,34.294,63.539,31.778z"/>
<path fill-rule="evenodd" clip-rule="evenodd" fill="#F78E1E" d="M49.834,21.896c2.306-3.23,6.781-3.973,10-1.653
	c3.217,2.318,3.955,6.816,1.646,10.05c-2.304,3.233-6.782,3.975-10,1.653C48.263,29.63,47.527,25.131,49.834,21.896z"/>
<path fill-rule="evenodd" clip-rule="evenodd" fill="#EE3524" d="M85.8,64.081c-1.109-1.517-0.787-3.646,0.719-4.765
	c1.511-1.115,3.633-0.79,4.744,0.725c1.109,1.519,0.786,3.648-0.725,4.764C89.033,65.921,86.908,65.595,85.8,64.081z"/>
<path fill-rule="evenodd" clip-rule="evenodd" fill="#EE3524" d="M75.57,71.646c-1.425-1.948-1.012-4.683,0.927-6.114
	c1.934-1.432,4.66-1.016,6.085,0.929c1.425,1.947,1.011,4.684-0.925,6.113C79.721,74.008,76.995,73.591,75.57,71.646z"/>
<path fill-rule="evenodd" clip-rule="evenodd" fill="#EE3524" d="M63.839,80.321c-1.83-2.494-1.298-6.01,1.188-7.848
	c2.484-1.834,5.978-1.301,7.807,1.198c1.83,2.494,1.298,6.008-1.189,7.848C69.163,83.354,65.668,82.819,63.839,80.321z"/>
<path fill-rule="evenodd" clip-rule="evenodd" fill="#EE3524" d="M50.256,90.367c-2.345-3.203-1.666-7.708,1.523-10.069
	c3.19-2.355,7.673-1.672,10.02,1.531c2.348,3.205,1.666,7.715-1.524,10.069C57.087,94.258,52.601,93.571,50.256,90.367z"/>
<path fill-rule="evenodd" clip-rule="evenodd" fill="#717073" d="M97.824,58.535c-1.479,0.495-3.073-0.314-3.565-1.796
	c-0.488-1.488,0.309-3.091,1.788-3.583c1.479-0.495,3.076,0.312,3.566,1.795C100.104,56.44,99.303,58.043,97.824,58.535z"/>
<path fill-rule="evenodd" clip-rule="evenodd" fill="#D60C8C" d="M101.291,69.033c-1.779,0.591-3.697-0.378-4.286-2.163
	c-0.59-1.786,0.373-3.713,2.149-4.309c1.777-0.591,3.696,0.378,4.286,2.164C104.03,66.514,103.067,68.442,101.291,69.033z"/>
<path fill-rule="evenodd" clip-rule="evenodd" fill="#D60C8C" d="M105.288,81.146c-2.281,0.763-4.744-0.478-5.499-2.775
	c-0.757-2.29,0.479-4.765,2.759-5.527c2.283-0.761,4.744,0.482,5.504,2.772C108.807,77.91,107.571,80.386,105.288,81.146z"/>
<path fill-rule="evenodd" clip-rule="evenodd" fill="#D60C8C" d="M109.875,95.038c-2.927,0.978-6.087-0.613-7.06-3.557
	c-0.968-2.943,0.617-6.118,3.543-7.093c2.929-0.979,6.092,0.616,7.059,3.559C114.389,90.888,112.805,94.066,109.875,95.038z"/>
<path fill-rule="evenodd" clip-rule="evenodd" fill="#D60C8C" d="M115.188,111.128c-3.757,1.25-7.812-0.79-9.06-4.568
	c-1.244-3.775,0.789-7.85,4.546-9.103c3.757-1.255,7.813,0.792,9.059,4.565C120.981,105.801,118.947,109.874,115.188,111.128z"/>
<g>
	<path fill="#717073" d="M0,62.756l2.205-3.349c2.369,1.756,4.859,2.654,7.064,2.654c2.124,0,3.349-0.898,3.349-2.327v-0.082
		c0-1.674-2.287-2.246-4.818-3.021c-3.185-0.898-6.737-2.205-6.737-6.329v-0.081c0-4.084,3.389-6.574,7.676-6.574
		c2.695,0,5.635,0.938,7.922,2.449l-1.96,3.512c-2.083-1.266-4.288-2.041-6.084-2.041c-1.919,0-3.021,0.898-3.021,2.123v0.082
		c0,1.592,2.328,2.245,4.859,3.062c3.144,0.979,6.696,2.408,6.696,6.288v0.081c0,4.532-3.512,6.778-8.003,6.778
		C6.084,65.981,2.695,64.879,0,62.756z"/>
	<path fill="#717073" d="M21.111,54.834v-0.081c0-7.146,4.859-11.188,10.004-11.188c3.552,0,5.798,1.756,7.35,3.798V35.766h4.941
		v29.808h-4.941V61.98c-1.592,2.245-3.838,4.042-7.35,4.042C26.052,66.022,21.111,61.98,21.111,54.834z M38.547,54.834v-0.081
		c0-4.165-2.94-6.901-6.248-6.901c-3.389,0-6.207,2.613-6.207,6.901v0.081c0,4.165,2.858,6.901,6.207,6.901
		C35.606,61.735,38.547,58.958,38.547,54.834z"/>
	<path fill="#717073" d="M49.613,44.014h4.941v3.308c1.388-2.001,3.389-3.757,6.737-3.757c4.859,0,7.677,3.267,7.677,8.248v13.761
		h-4.941v-12.25c0-3.348-1.674-5.268-4.614-5.268c-2.858,0-4.859,2.001-4.859,5.35v12.168h-4.941V44.014z"/>
</g>
<g>
	<g>
		<path fill="#717073" d="M115.987,74.349v-0.046c0-3.319,2.592-6.139,6.025-6.139c2.228,0,3.614,0.933,4.706,2.092l-1.159,1.229
			c-0.933-0.979-1.979-1.773-3.57-1.773c-2.387,0-4.206,2.023-4.206,4.547v0.045c0,2.547,1.864,4.57,4.32,4.57
			c1.5,0,2.66-0.75,3.592-1.751l1.114,1.046c-1.183,1.319-2.592,2.273-4.797,2.273C118.579,80.441,115.987,77.646,115.987,74.349z"
			/>
		<path fill="#717073" d="M128.628,74.326V74.28c0-3.388,2.388-6.116,5.639-6.116c3.479,0,5.479,2.774,5.479,6.207
			c0,0.228,0,0.364-0.023,0.568h-9.321c0.25,2.547,2.046,3.979,4.138,3.979c1.614,0,2.751-0.66,3.706-1.66l1.092,0.978
			c-1.183,1.318-2.615,2.205-4.843,2.205C131.266,80.441,128.628,77.964,128.628,74.326z M137.973,73.644
			c-0.182-2.137-1.41-4.001-3.752-4.001c-2.046,0-3.592,1.705-3.819,4.001H137.973z"/>
		<path fill="#717073" d="M142.814,68.415h1.751v2.046c0.772-1.273,2.001-2.297,4.024-2.297c2.842,0,4.501,1.91,4.501,4.707v7.298
			h-1.75v-6.866c0-2.183-1.183-3.547-3.252-3.547c-2.023,0-3.523,1.478-3.523,3.684v6.729h-1.751V68.415z"/>
		<path fill="#717073" d="M157.434,77.054v-7.093h-1.637v-1.546h1.637v-3.547h1.75v3.547h3.729v1.546h-3.729v6.866
			c0,1.432,0.796,1.955,1.979,1.955c0.591,0,1.091-0.114,1.705-0.409v1.5c-0.614,0.318-1.273,0.501-2.114,0.501
			C158.866,80.374,157.434,79.441,157.434,77.054z"/>
		<path fill="#717073" d="M166.004,68.415h1.751v3.069c0.864-1.956,2.569-3.365,4.797-3.274v1.887h-0.137
			c-2.568,0-4.66,1.842-4.66,5.389v4.684h-1.751V68.415z"/>
		<path fill="#717073" d="M173.757,76.759v-0.046c0-2.478,2.047-3.797,5.024-3.797c1.501,0,2.569,0.205,3.615,0.5v-0.409
			c0-2.114-1.296-3.205-3.501-3.205c-1.387,0-2.479,0.363-3.569,0.863l-0.523-1.432c1.296-0.592,2.569-0.978,4.274-0.978
			c1.66,0,2.933,0.432,3.797,1.296c0.796,0.796,1.205,1.933,1.205,3.433v7.185h-1.683v-1.773c-0.818,1.068-2.183,2.023-4.251,2.023
			C175.962,80.419,173.757,79.169,173.757,76.759z M182.419,75.85v-1.137c-0.863-0.251-2.023-0.501-3.455-0.501
			c-2.206,0-3.434,0.955-3.434,2.433v0.046c0,1.478,1.364,2.342,2.956,2.342C180.646,79.032,182.419,77.714,182.419,75.85z"/>
		<path fill="#717073" d="M187.967,63.572h1.751v16.597h-1.751V63.572z"/>
	</g>
</g>
<g>
	<path fill="#717073" d="M196.296,65.539c0,1.115-0.876,1.991-2.016,1.991c-1.127,0-2.027-0.876-2.027-1.991
		c0-1.091,0.9-1.967,2.027-1.967C195.42,63.572,196.296,64.448,196.296,65.539z M192.757,65.539c0,0.876,0.648,1.572,1.535,1.572
		c0.863,0,1.5-0.696,1.5-1.56c0-0.876-0.637-1.583-1.512-1.583S192.757,64.676,192.757,65.539z M193.969,66.57h-0.456v-1.967
		c0.18-0.035,0.432-0.06,0.756-0.06c0.371,0,0.539,0.06,0.684,0.144c0.107,0.084,0.191,0.24,0.191,0.432
		c0,0.217-0.168,0.385-0.407,0.457V65.6c0.191,0.072,0.3,0.216,0.359,0.479c0.06,0.3,0.097,0.42,0.144,0.491h-0.491
		c-0.06-0.071-0.096-0.251-0.155-0.479c-0.037-0.217-0.156-0.312-0.408-0.312h-0.216V66.57z M193.98,65.455h0.216
		c0.252,0,0.456-0.084,0.456-0.287c0-0.18-0.132-0.301-0.42-0.301c-0.12,0-0.204,0.013-0.252,0.025V65.455z"/>
</g>
<g>
</g>
<g>
</g>
<g>
</g>
<g>
</g>
<g>
</g>
<g>
</g>
</svg>
